<svg width="34" height="34" viewBox="0 0 34 34" fill="none" xmlns="http://www.w3.org/2000/svg">
<g clip-path="url(#clip0_36_106)">
<path d="M32.8466 10.897C32.5355 10.6398 25.4464 4.93898 23.888 3.6999C22.4239 2.52963 19.9206 0 17.0435 0C14.1818 0 11.7025 2.49824 10.199 3.6999C8.57862 4.9882 1.51735 10.6676 1.24711 10.8898C0.884371 11.1881 0.59221 11.563 0.391619 11.9876C0.191029 12.4122 0.0869884 12.876 0.0869751 13.3456L0.0869751 30.7337C0.0869751 32.4896 1.5104 33.913 3.26632 33.913H30.8207C32.5766 33.913 34 32.4896 34 30.7337V13.3472C34 12.8791 33.8966 12.4167 33.6972 11.9931C33.4978 11.5696 33.2074 11.1953 32.8466 10.897ZM30.8207 30.3363C30.8207 30.4417 30.7788 30.5428 30.7043 30.6173C30.6297 30.6918 30.5287 30.7337 30.4233 30.7337H3.66374C3.55834 30.7337 3.45725 30.6918 3.38272 30.6173C3.30819 30.5428 3.26632 30.4417 3.26632 30.3363V13.5352C3.26632 13.4151 3.32037 13.3017 3.41377 13.2262C4.46494 12.3775 10.6198 7.42696 12.1811 6.18575C13.3843 5.22473 15.4802 3.17935 17.0435 3.17935C18.6128 3.17935 20.7433 5.25712 21.9059 6.18575C23.4673 7.42709 29.6227 12.3784 30.6734 13.2277C30.7194 13.265 30.7565 13.312 30.782 13.3655C30.8075 13.4189 30.8207 13.4774 30.8207 13.5366V30.3363ZM28.7017 17.9034C28.9831 18.2452 28.9312 18.7509 28.5861 19.0282C26.6669 20.5704 24.66 22.1809 23.888 22.7946C22.3845 23.9963 19.9052 26.4946 17.0435 26.4946C14.1654 26.4946 11.6593 23.9619 10.199 22.7946C9.45188 22.2007 7.43398 20.5814 5.50101 19.0281C5.15592 18.7507 5.10405 18.245 5.38542 17.9033L6.39606 16.6761C6.6728 16.3401 7.16818 16.2891 7.50744 16.5618C9.40299 18.0853 11.3866 19.6772 12.1811 20.3088C13.3437 21.2374 15.4742 23.3152 17.0435 23.3152C18.6068 23.3152 20.7028 21.2698 21.9059 20.3088C22.7004 19.6772 24.6841 18.0853 26.5798 16.562C26.919 16.2893 27.4144 16.3403 27.6911 16.6763L28.7017 17.9034Z" fill="white"/>
</g>
<defs>
<clipPath id="clip0_36_106">
<rect width="33.913" height="33.913" fill="white" transform="translate(0.0869751)"/>
</clipPath>
</defs>
</svg>
