<svg width="35" height="40" viewBox="0 0 35 40" fill="none" xmlns="http://www.w3.org/2000/svg">
<g clip-path="url(#clip0_36_108)">
<path d="M17.4684 10.9909C12.5108 10.9909 8.51203 14.9897 8.51203 19.9473C8.51203 24.9049 12.5108 28.9037 17.4684 28.9037C22.426 28.9037 26.4248 24.9049 26.4248 19.9473C26.4248 14.9897 22.426 10.9909 17.4684 10.9909ZM17.4684 25.7701C14.2647 25.7701 11.6456 23.1588 11.6456 19.9473C11.6456 16.7358 14.2569 14.1245 17.4684 14.1245C20.6799 14.1245 23.2912 16.7358 23.2912 19.9473C23.2912 23.1588 20.6721 25.7701 17.4684 25.7701ZM28.8802 10.6246C28.8802 11.786 27.9448 12.7136 26.7911 12.7136C25.6297 12.7136 24.7021 11.7782 24.7021 10.6246C24.7021 9.47093 25.6375 8.53554 26.7911 8.53554C27.9448 8.53554 28.8802 9.47093 28.8802 10.6246ZM34.8121 12.7448C34.6796 9.94642 34.0404 7.46764 31.9903 5.42537C29.9481 3.3831 27.4693 2.74391 24.6709 2.6036C21.7868 2.43991 13.1422 2.43991 10.2581 2.6036C7.46751 2.73612 4.98872 3.3753 2.93866 5.41757C0.888593 7.45984 0.257204 9.93863 0.116895 12.737C-0.046798 15.6211 -0.046798 24.2657 0.116895 27.1498C0.249409 29.9482 0.888593 32.427 2.93866 34.4692C4.98872 36.5115 7.45971 37.1507 10.2581 37.291C13.1422 37.4547 21.7868 37.4547 24.6709 37.291C27.4693 37.1585 29.9481 36.5193 31.9903 34.4692C34.0326 32.427 34.6718 29.9482 34.8121 27.1498C34.9758 24.2657 34.9758 15.6289 34.8121 12.7448ZM31.0861 30.2444C30.4781 31.7722 29.3011 32.9492 27.7655 33.565C25.466 34.477 20.0095 34.2666 17.4684 34.2666C14.9272 34.2666 9.46301 34.4692 7.1713 33.565C5.64349 32.957 4.46646 31.78 3.85066 30.2444C2.93866 27.9449 3.14912 22.4885 3.14912 19.9473C3.14912 17.4062 2.94645 11.9419 3.85066 9.65021C4.45867 8.12241 5.6357 6.94538 7.1713 6.32958C9.4708 5.41757 14.9272 5.62803 17.4684 5.62803C20.0095 5.62803 25.4738 5.42537 27.7655 6.32958C29.2933 6.93758 30.4703 8.11461 31.0861 9.65021C31.9981 11.9497 31.7877 17.4062 31.7877 19.9473C31.7877 22.4885 31.9981 27.9527 31.0861 30.2444Z" fill="white"/>
</g>
<defs>
<clipPath id="clip0_36_108">
<rect width="34.9212" height="39.91" fill="white"/>
</clipPath>
</defs>
</svg>
