<svg width="30" height="34" viewBox="0 0 30 34" fill="none" xmlns="http://www.w3.org/2000/svg">
<g clip-path="url(#clip0_36_104)">
<path d="M27.8587 2.11951H2.41729C1.25153 2.11951 0.304352 3.07994 0.304352 4.25894V29.654C0.304352 30.833 1.25153 31.7934 2.41729 31.7934H27.8587C29.0245 31.7934 29.9783 30.833 29.9783 29.654V4.25894C29.9783 3.07994 29.0245 2.11951 27.8587 2.11951ZM9.27276 27.5543H4.87466V13.3929H9.27939V27.5543H9.27276ZM7.07371 11.4588C5.66288 11.4588 4.52361 10.313 4.52361 8.90874C4.52361 7.50453 5.66288 6.35864 7.07371 6.35864C8.47793 6.35864 9.62381 7.50453 9.62381 8.90874C9.62381 10.3196 8.48455 11.4588 7.07371 11.4588ZM25.759 27.5543H21.3609V20.6657C21.3609 19.023 21.3278 16.9101 19.0758 16.9101C16.784 16.9101 16.4329 18.6985 16.4329 20.5465V27.5543H12.0348V13.3929H16.2541V15.327H16.3137C16.9032 14.2143 18.3405 13.0419 20.48 13.0419C24.9311 13.0419 25.759 15.9762 25.759 19.7914V27.5543Z" fill="white"/>
</g>
<defs>
<clipPath id="clip0_36_104">
<rect width="29.6739" height="33.913" fill="white" transform="translate(0.304352)"/>
</clipPath>
</defs>
</svg>
