<svg width="34" height="34" viewBox="0 0 34 34" fill="none" xmlns="http://www.w3.org/2000/svg">
<g clip-path="url(#clip0_36_102)">
<path d="M30.427 10.049C30.4485 10.3503 30.4485 10.6516 30.4485 10.9528C30.4485 20.1411 23.4551 30.7282 10.6731 30.7282C6.73525 30.7282 3.07715 29.5877 0 27.6081C0.559499 27.6726 1.0974 27.6942 1.67843 27.6942C4.92766 27.6942 7.91876 26.5967 10.3073 24.7246C7.2517 24.6601 4.691 22.6589 3.80873 19.9045C4.23913 19.969 4.66947 20.0121 5.1214 20.0121C5.74541 20.0121 6.36949 19.9259 6.95045 19.7754C3.76574 19.1298 1.37712 16.3324 1.37712 12.954V12.868C2.30238 13.3844 3.37839 13.7072 4.51878 13.7502C2.64667 12.5021 1.42017 10.3718 1.42017 7.96173C1.42017 6.67065 1.76441 5.48714 2.36696 4.45425C5.7884 8.67185 10.9313 11.4262 16.6982 11.7275C16.5906 11.211 16.5261 10.6731 16.5261 10.1351C16.5261 6.30483 19.6247 3.18469 23.4765 3.18469C25.4777 3.18469 27.2852 4.02391 28.5548 5.37957C30.1256 5.07833 31.6319 4.4973 32.9661 3.70114C32.4496 5.31505 31.3522 6.67071 29.9105 7.53139C31.3092 7.38084 32.6649 6.99342 33.9129 6.45551C32.9663 7.83263 31.7827 9.05913 30.427 10.049Z" fill="white"/>
</g>
<defs>
<clipPath id="clip0_36_102">
<rect width="33.913" height="33.913" fill="white"/>
</clipPath>
</defs>
</svg>
